<svg id="visual" viewBox="0 0 1920 1080" width="1920" height="1080" xmlns="http://www.w3.org/2000/svg" xmlns:xlink="http://www.w3.org/1999/xlink" version="1.1"><g transform="translate(1920 1080)"><path d="M451.4 -781.8C587.8 -703.1 703.1 -587.8 781.8 -451.4C860.6 -315 902.8 -157.5 902.8 0C902.8 157.5 860.6 315 781.8 451.4C703.1 587.8 587.8 703.1 451.4 781.8C315 860.6 157.5 902.8 0 902.8C-157.5 902.8 -315 860.6 -451.4 781.9C-587.8 703.1 -703.1 587.8 -781.8 451.4C-860.6 315 -902.8 157.5 -902.8 0C-902.8 -157.5 -860.6 -315 -781.8 -451.4C-703.1 -587.8 -587.8 -703.1 -451.4 -781.8C-315 -860.6 -157.5 -902.8 0 -902.8C157.5 -902.8 315 -860.6 451.4 -781.8" fill="#f0eeff"></path></g></svg>