<svg id="visual" viewBox="0 0 1920 1080" width="1920" height="1080" xmlns="http://www.w3.org/2000/svg" xmlns:xlink="http://www.w3.org/1999/xlink" version="1.1"><rect x="0" y="0" width="1920" height="1080" fill="#FFFFFF"></rect><defs><linearGradient id="grad1_0" x1="43.8%" y1="0%" x2="100%" y2="100%"><stop offset="14.444444444444446%" stop-color="#ffffff" stop-opacity="1"></stop><stop offset="85.55555555555554%" stop-color="#ffffff" stop-opacity="1"></stop></linearGradient></defs><defs><linearGradient id="grad2_0" x1="0%" y1="0%" x2="56.3%" y2="100%"><stop offset="14.444444444444446%" stop-color="#ffffff" stop-opacity="1"></stop><stop offset="85.55555555555554%" stop-color="#ffffff" stop-opacity="1"></stop></linearGradient></defs><g transform="translate(1920, 0)"><path d="M0 810C-157.2 797.8 -314.4 785.6 -405 701.5C-495.6 617.4 -519.5 461.4 -575.9 332.5C-632.3 203.6 -721.2 101.8 -810 0L0 0Z" fill="#f0eeff"></path></g><g transform="translate(0, 1080)"><path d="M0 -810C110.6 -736.4 221.2 -662.8 349 -604.5C476.8 -546.2 621.8 -503.2 701.5 -405C781.2 -306.8 795.6 -153.4 810 0L0 0Z" fill="#f0eeff"></path></g></svg>